<svg width="30" height="27" viewBox="0 0 30 27" fill="none" xmlns="http://www.w3.org/2000/svg">
<path d="M29.4731 10.486L25.7194 7.61134V3.01396C25.7194 2.49626 25.2711 2.07501 24.7201 2.07501H22.3582C21.8073 2.07501 21.359 2.49626 21.359 3.01396V4.27191L16.3433 0.43081C15.9805 0.15305 15.5023 0 14.9968 0C14.4934 0 14.0174 0.152111 13.6566 0.42842L0.526892 10.4859C-0.0696704 10.9427 -0.0338785 11.3405 0.0405215 11.537C0.11474 11.7331 0.353746 12.0621 1.12009 12.0621H2.91796V25.2883C2.91796 26.2322 3.73299 27 4.7348 27H10.4125C11.4058 27 12.1839 26.2481 12.1839 25.2883V19.8645C12.1839 19.3996 12.6386 18.9763 13.1377 18.9763H16.9531C17.4289 18.9763 17.8161 19.3747 17.8161 19.8645V25.2883C17.8161 26.2161 18.6689 27 19.6784 27H25.2652C26.267 27 27.082 26.2321 27.082 25.2883V12.0621H28.8799C29.6463 12.0621 29.8852 11.7331 29.9595 11.537C30.0339 11.3405 30.0697 10.9427 29.4731 10.486Z" fill="white"/>
</svg>
